<svg xmlns="http://www.w3.org/2000/svg" xmlns:xlink="http://www.w3.org/1999/xlink" width="500" zoomAndPan="magnify" viewBox="0 0 375 374.999991" height="500" preserveAspectRatio="xMidYMid meet" version="1.0"><defs><g/><clipPath id="64c487909b"><path d="M 105.382812 42.464844 L 271.882812 42.464844 L 271.882812 116.714844 L 105.382812 116.714844 Z M 105.382812 42.464844 " clip-rule="nonzero"/></clipPath><clipPath id="c3a6e9e51c"><path d="M 107 280.660156 L 274 280.660156 L 274 323.410156 L 107 323.410156 Z M 107 280.660156 " clip-rule="nonzero"/></clipPath></defs><g fill="#ffffff" fill-opacity="1"><g transform="translate(150.789428, 193.947722)"><g><path d="M 37.179688 -29.660156 C 37.796875 -30.484375 38.3125 -31.207031 38.929688 -31.824219 C 39.855469 -32.75 40.269531 -33.78125 40.578125 -34.914062 C 40.679688 -35.429688 40.679688 -35.941406 40.886719 -36.457031 C 42.019531 -40.472656 42.226562 -44.492188 42.121094 -48.609375 C 42.019531 -52.113281 41.710938 -55.511719 41.503906 -58.910156 C 41.402344 -62.71875 40.785156 -68.796875 36.972656 -70.855469 C 34.398438 -71.886719 32.132812 -72.503906 29.351562 -72.503906 C 26.878906 -72.402344 24.511719 -72.402344 22.039062 -72.296875 C 16.273438 -72.296875 10.609375 -72.195312 4.839844 -71.988281 C 2.164062 -71.886719 0.308594 -69.414062 0.308594 -66.839844 C 0.308594 -62.308594 0.410156 -57.777344 0.515625 -53.246094 C 0.515625 -50.980469 0.617188 -48.714844 0.515625 -46.449219 C 0.410156 -41.503906 0.207031 -36.5625 0.207031 -31.515625 C 0.101562 -27.703125 0.308594 -23.894531 0.308594 -20.082031 C 0.308594 -17.921875 0.207031 -15.757812 0.101562 -13.699219 C -0.207031 -10.503906 0.308594 -7.414062 1.542969 -4.53125 C 2.367188 -2.675781 4.839844 -1.339844 6.695312 -0.824219 C 8.753906 -0.410156 10.8125 -0.410156 12.875 -0.308594 C 15.140625 -0.308594 17.40625 -0.515625 19.671875 -0.617188 C 21.628906 -0.722656 23.585938 -0.617188 25.542969 -0.824219 C 30.175781 -1.339844 37.898438 -1.03125 40.472656 -5.972656 C 40.988281 -6.796875 41.195312 -7.722656 41.296875 -8.546875 C 42.019531 -11.945312 42.226562 -15.449219 42.121094 -18.847656 C 42.019531 -21.628906 42.121094 -25.746094 40.371094 -28.011719 C 39.753906 -28.835938 39.03125 -29.351562 38.003906 -29.453125 C 37.695312 -29.558594 37.382812 -29.660156 37.179688 -29.660156 Z M 15.652344 -36.25 C 15.449219 -36.355469 15.242188 -36.457031 15.140625 -36.664062 C 14.726562 -37.074219 14.726562 -37.695312 14.726562 -38.3125 C 14.832031 -41.605469 15.035156 -45.007812 15.34375 -48.300781 C 15.449219 -49.226562 15.140625 -57.160156 15.34375 -57.261719 C 16.375 -57.363281 17.40625 -57.671875 18.433594 -57.777344 C 20.082031 -57.980469 21.628906 -58.085938 23.273438 -58.1875 C 23.894531 -58.1875 24.511719 -58.1875 25.027344 -58.085938 C 26.261719 -57.777344 26.675781 -57.363281 26.777344 -56.128906 C 26.878906 -53.863281 26.570312 -51.699219 26.675781 -49.433594 C 26.675781 -46.652344 26.570312 -43.769531 26.160156 -40.988281 C 25.953125 -38.519531 25.4375 -38.003906 23.378906 -37.179688 C 21.214844 -36.5625 19.054688 -36.25 16.890625 -36.148438 C 16.476562 -36.148438 16.066406 -36.148438 15.652344 -36.25 Z M 14.933594 -15.550781 C 14.933594 -15.859375 14.832031 -16.066406 14.832031 -16.167969 C 15.035156 -17.300781 15.140625 -18.433594 15.34375 -19.671875 C 18.230469 -20.289062 21.007812 -20.699219 23.894531 -20.699219 C 25.027344 -20.699219 26.261719 -20.597656 27.496094 -20.496094 C 27.601562 -20.082031 27.808594 -19.671875 27.808594 -19.363281 C 27.910156 -18.847656 27.808594 -18.230469 27.703125 -17.816406 C 27.394531 -15.964844 26.570312 -15.242188 24.820312 -15.242188 C 24.203125 -15.242188 23.6875 -15.242188 23.070312 -15.242188 C 21.9375 -15.242188 20.699219 -15.242188 19.566406 -15.242188 C 18.023438 -15.34375 16.476562 -15.449219 14.933594 -15.550781 Z M 14.933594 -15.550781 "/></g></g></g><g fill="#ffffff" fill-opacity="1"><g transform="translate(195.06891, 193.947722)"><g><path d="M 15.242188 -71.371094 C 13.492188 -72.089844 11.535156 -72.195312 9.578125 -72.195312 C 5.457031 -72.195312 4.015625 -68.589844 2.675781 -65.292969 C 2.367188 -64.46875 2.164062 -63.542969 2.164062 -62.71875 C 1.957031 -60.144531 1.855469 -57.570312 1.75 -54.996094 C 1.648438 -53.761719 1.648438 -52.421875 1.542969 -51.183594 C 0.925781 -46.242188 0.410156 -41.402344 0.207031 -36.355469 C 0 -31.515625 0.101562 -26.570312 0.207031 -21.628906 C 0.515625 -10.195312 1.957031 -0.308594 15.34375 -0.308594 C 18.539062 -0.308594 21.628906 -0.308594 24.71875 -0.722656 C 29.558594 -1.234375 33.265625 -2.574219 34.707031 -7.414062 C 36.664062 -13.386719 37.074219 -20.289062 37.28125 -26.570312 C 37.28125 -27.394531 37.179688 -28.320312 37.074219 -29.144531 C 36.972656 -30.074219 36.871094 -31 36.871094 -32.03125 C 36.871094 -32.957031 36.972656 -33.78125 36.972656 -34.707031 C 37.074219 -37.28125 37.179688 -39.753906 37.28125 -42.328125 C 37.28125 -49.226562 37.796875 -56.128906 37.898438 -63.132812 C 37.898438 -69.414062 36.25 -72.503906 29.453125 -72.503906 C 27.910156 -72.503906 26.160156 -72.296875 25.128906 -71.269531 C 24.097656 -70.339844 23.789062 -68.898438 23.585938 -67.457031 C 22.453125 -60.660156 22.964844 -53.761719 23.070312 -46.859375 C 23.171875 -42.019531 23.273438 -37.28125 23.273438 -32.441406 C 23.171875 -30.691406 23.070312 -29.042969 22.964844 -27.292969 C 22.964844 -25.128906 22.863281 -23.070312 22.863281 -21.007812 C 22.863281 -19.566406 22.039062 -18.847656 20.90625 -18.433594 C 20.082031 -18.125 19.15625 -17.921875 18.332031 -17.714844 C 15.859375 -18.230469 15.34375 -19.363281 15.449219 -21.214844 C 15.550781 -23.996094 15.550781 -26.675781 15.757812 -29.453125 C 15.964844 -32.75 16.167969 -35.941406 15.859375 -39.238281 C 15.550781 -42.226562 15.449219 -45.210938 15.757812 -48.199219 C 15.859375 -49.332031 15.757812 -50.359375 15.757812 -51.492188 C 15.757812 -54.171875 15.652344 -56.746094 15.652344 -59.425781 C 15.757812 -62.71875 15.964844 -66.015625 16.066406 -69.3125 C 16.066406 -70.136719 15.859375 -70.855469 15.242188 -71.371094 Z M 15.242188 -71.371094 "/></g></g></g><g fill="#ffffff" fill-opacity="1"><g transform="translate(235.023422, 193.947722)"><g><path d="M 26.261719 -29.453125 C 26.261719 -29.660156 26.160156 -29.761719 26.160156 -29.96875 C 26.054688 -30.382812 25.851562 -30.792969 26.160156 -31.101562 C 26.363281 -31.308594 26.570312 -31.308594 26.878906 -31.410156 C 27.910156 -31.515625 28.941406 -31.71875 29.96875 -32.03125 C 34.914062 -34.089844 35.429688 -40.0625 35.632812 -44.695312 C 35.839844 -48.199219 35.839844 -51.597656 36.046875 -55.097656 C 36.355469 -59.425781 37.488281 -65.292969 34.808594 -69.105469 C 32.957031 -71.679688 29.558594 -72.503906 26.46875 -72.605469 C 24.511719 -72.710938 22.453125 -72.710938 20.496094 -72.710938 C 16.582031 -72.710938 12.667969 -72.605469 8.652344 -72.605469 C 2.675781 -72.605469 1.542969 -69.105469 1.234375 -63.957031 C 1.132812 -59.9375 1.03125 -55.921875 0.824219 -51.90625 C 0.824219 -51.597656 0.824219 -51.289062 0.824219 -50.875 C 0.617188 -46.550781 0.410156 -42.121094 0.824219 -37.695312 C 0.824219 -36.765625 0.824219 -35.839844 0.722656 -35.015625 C 0.515625 -32.75 0.308594 -30.484375 0.101562 -28.21875 C 0 -26.570312 0.101562 -24.921875 0.207031 -23.273438 C 0.207031 -20.1875 0.410156 -17.097656 0.410156 -14.007812 C 0.410156 -10.195312 0.207031 -6.488281 0.101562 -2.78125 C 0.101562 0.515625 3.605469 1.03125 6.28125 1.03125 C 9.164062 1.03125 12.875 0.722656 13.492188 -2.675781 C 14.210938 -6.796875 14.109375 -11.019531 13.902344 -15.140625 C 13.902344 -16.992188 14.210938 -18.847656 14.316406 -20.699219 C 15.859375 -17.921875 16.785156 -14.726562 18.125 -11.84375 C 19.464844 -8.546875 20.90625 -5.355469 22.347656 -2.164062 C 23.585938 0.515625 24.613281 1.234375 27.703125 1.234375 C 28.425781 1.234375 29.144531 1.339844 30.074219 1.339844 C 32.234375 1.339844 34.808594 1.03125 35.839844 -0.722656 C 36.871094 -2.367188 35.941406 -4.632812 35.117188 -6.386719 C 31.617188 -13.902344 28.835938 -21.628906 26.261719 -29.453125 Z M 20.289062 -46.242188 C 18.539062 -46.035156 16.785156 -45.210938 15.035156 -45.210938 C 14.726562 -45.210938 14.519531 -45.316406 14.210938 -45.316406 C 13.386719 -47.582031 13.59375 -55.304688 14.625 -58.292969 C 15.035156 -58.601562 15.550781 -58.703125 15.964844 -58.703125 C 16.476562 -58.703125 17.097656 -58.601562 17.609375 -58.496094 C 18.640625 -58.292969 19.671875 -57.980469 20.804688 -57.777344 C 21.628906 -57.671875 22.039062 -57.261719 22.039062 -56.4375 C 22.140625 -55.714844 22.140625 -54.894531 22.140625 -54.171875 C 22.140625 -52.628906 22.039062 -51.183594 22.039062 -49.742188 C 21.9375 -48.300781 21.730469 -47.066406 20.289062 -46.242188 Z M 20.289062 -46.242188 "/></g></g></g><g clip-path="url(#64c487909b)"><path fill="#f4b902" d="M 271.480469 91.238281 C 271.480469 78.296875 266.339844 65.882812 257.1875 56.734375 C 248.039062 47.582031 235.625 42.441406 222.683594 42.441406 C 201.308594 42.441406 175.9375 42.441406 154.5625 42.441406 C 141.621094 42.441406 129.207031 47.582031 120.058594 56.734375 C 110.90625 65.882812 105.765625 78.296875 105.765625 91.238281 L 105.765625 96.757812 C 105.765625 102.050781 107.871094 107.132812 111.613281 110.878906 C 115.359375 114.625 120.441406 116.726562 125.734375 116.726562 C 156.492188 116.726562 220.753906 116.726562 251.507812 116.726562 C 256.804688 116.726562 261.886719 114.625 265.632812 110.878906 C 269.375 107.132812 271.480469 102.050781 271.480469 96.757812 C 271.480469 94.988281 271.480469 93.140625 271.480469 91.238281 Z M 265.765625 91.238281 L 265.765625 96.757812 C 265.765625 100.539062 264.265625 104.164062 261.589844 106.835938 C 258.917969 109.511719 255.289062 111.011719 251.507812 111.011719 L 125.734375 111.011719 C 121.957031 111.011719 118.328125 109.511719 115.65625 106.835938 C 112.980469 104.164062 111.480469 100.539062 111.480469 96.757812 C 111.480469 96.757812 111.480469 91.238281 111.480469 91.238281 C 111.480469 79.8125 116.019531 68.851562 124.097656 60.773438 C 132.179688 52.695312 143.136719 48.15625 154.5625 48.15625 C 175.9375 48.15625 201.308594 48.15625 222.683594 48.15625 C 234.109375 48.15625 245.066406 52.695312 253.148438 60.773438 C 261.226562 68.851562 265.765625 79.8125 265.765625 91.238281 Z M 159.738281 73.171875 C 161.546875 73.171875 163.019531 75.246094 163.019531 77.808594 C 163.019531 80.363281 161.546875 82.441406 159.738281 82.441406 C 157.925781 82.441406 156.453125 80.363281 156.453125 77.808594 C 156.453125 75.246094 157.925781 73.171875 159.738281 73.171875 Z M 178.996094 73.171875 C 180.804688 73.171875 182.277344 75.246094 182.277344 77.808594 C 182.277344 80.363281 180.804688 82.441406 178.996094 82.441406 C 177.183594 82.441406 175.710938 80.363281 175.710938 77.808594 C 175.710938 75.246094 177.183594 73.171875 178.996094 73.171875 Z M 198.253906 73.171875 C 200.0625 73.171875 201.539062 75.246094 201.539062 77.808594 C 201.539062 80.363281 200.0625 82.441406 198.253906 82.441406 C 196.441406 82.441406 194.96875 80.363281 194.96875 77.808594 C 194.96875 75.246094 196.441406 73.171875 198.253906 73.171875 Z M 217.511719 73.171875 C 219.324219 73.171875 220.792969 75.246094 220.792969 77.808594 C 220.792969 80.363281 219.324219 82.441406 217.511719 82.441406 C 215.695312 82.441406 214.226562 80.363281 214.226562 77.808594 C 214.226562 75.246094 215.695312 73.171875 217.511719 73.171875 Z M 236.769531 73.171875 C 238.582031 73.171875 240.050781 75.246094 240.050781 77.808594 C 240.050781 80.363281 238.582031 82.441406 236.769531 82.441406 C 234.953125 82.441406 233.484375 80.363281 233.484375 77.808594 C 233.484375 75.246094 234.953125 73.171875 236.769531 73.171875 Z M 140.476562 73.171875 C 142.289062 73.171875 143.761719 75.246094 143.761719 77.808594 C 143.761719 80.363281 142.289062 82.441406 140.476562 82.441406 C 138.667969 82.441406 137.195312 80.363281 137.195312 77.808594 C 137.195312 75.246094 138.667969 73.171875 140.476562 73.171875 Z M 150.109375 59.582031 C 151.917969 59.582031 153.390625 61.660156 153.390625 64.21875 C 153.390625 66.777344 151.917969 68.851562 150.109375 68.851562 C 148.296875 68.851562 146.824219 66.777344 146.824219 64.21875 C 146.824219 61.660156 148.296875 59.582031 150.109375 59.582031 Z M 169.367188 59.582031 C 171.175781 59.582031 172.648438 61.660156 172.648438 64.21875 C 172.648438 66.777344 171.175781 68.851562 169.367188 68.851562 C 167.554688 68.851562 166.082031 66.777344 166.082031 64.21875 C 166.082031 61.660156 167.554688 59.582031 169.367188 59.582031 Z M 188.625 59.582031 C 190.433594 59.582031 191.90625 61.660156 191.90625 64.21875 C 191.90625 66.777344 190.433594 68.851562 188.625 68.851562 C 186.8125 68.851562 185.339844 66.777344 185.339844 64.21875 C 185.339844 61.660156 186.8125 59.582031 188.625 59.582031 Z M 207.882812 59.582031 C 209.691406 59.582031 211.164062 61.660156 211.164062 64.21875 C 211.164062 66.777344 209.691406 68.851562 207.882812 68.851562 C 206.066406 68.851562 204.597656 66.777344 204.597656 64.21875 C 204.597656 61.660156 206.066406 59.582031 207.882812 59.582031 Z M 227.140625 59.582031 C 228.953125 59.582031 230.421875 61.660156 230.421875 64.21875 C 230.421875 66.777344 228.953125 68.851562 227.140625 68.851562 C 225.324219 68.851562 223.855469 66.777344 223.855469 64.21875 C 223.855469 61.660156 225.324219 59.582031 227.140625 59.582031 Z M 227.140625 59.582031 " fill-opacity="1" fill-rule="evenodd"/></g><g fill="#ffffff" fill-opacity="1"><g transform="translate(150.124161, 275.674654)"><g><path d="M 38.882812 -50.515625 C 38.992188 -51.378906 39.3125 -52.238281 39.3125 -53.207031 C 39.527344 -55.578125 39.527344 -58.054688 39.636719 -60.425781 C 39.851562 -62.578125 39.636719 -64.734375 40.175781 -66.996094 C 40.390625 -67.855469 40.175781 -69.042969 39.960938 -70.011719 C 39.746094 -70.871094 39.207031 -71.734375 38.882812 -72.703125 C 38.238281 -74.210938 37.050781 -75.074219 35.542969 -75.289062 C 34.035156 -75.613281 32.636719 -75.828125 31.128906 -75.933594 C 25.957031 -76.042969 20.679688 -76.148438 15.511719 -76.148438 C 12.925781 -76.042969 10.339844 -76.042969 7.863281 -75.394531 C 5.171875 -74.640625 3.445312 -73.242188 3.125 -70.332031 C 2.691406 -67.855469 2.371094 -65.269531 2.152344 -62.792969 C 1.9375 -59.347656 1.832031 -55.792969 1.617188 -52.347656 C 1.398438 -49.976562 0.96875 -47.605469 0.863281 -45.128906 C 0.539062 -40.820312 0.214844 -36.40625 0.214844 -32.097656 C 0.109375 -23.480469 -0.109375 -14.863281 0.539062 -6.246094 C 0.863281 -0.753906 7 -0.324219 11.203125 -0.324219 C 13.355469 -0.324219 15.511719 -0.429688 17.664062 -0.644531 C 21.542969 -0.96875 25.417969 -1.507812 29.40625 -1.507812 C 32.421875 -1.507812 34.144531 -2.046875 36.40625 -4.199219 C 37.160156 -4.847656 37.589844 -5.707031 37.699219 -6.570312 C 37.914062 -7.753906 38.019531 -9.046875 38.019531 -10.230469 C 38.019531 -14.648438 38.019531 -19.171875 38.019531 -23.589844 C 38.128906 -27.464844 37.699219 -31.34375 37.160156 -35.21875 C 36.835938 -37.699219 35.21875 -39.097656 32.636719 -39.421875 C 30.160156 -39.851562 27.574219 -39.960938 25.097656 -39.960938 C 23.15625 -39.960938 21.328125 -39.851562 19.496094 -39.527344 C 19.0625 -39.527344 18.527344 -39.421875 18.09375 -39.421875 C 17.664062 -39.421875 17.234375 -39.527344 16.800781 -39.746094 C 16.371094 -40.390625 16.15625 -41.035156 16.371094 -41.789062 C 16.480469 -42.113281 16.371094 -42.542969 16.371094 -42.976562 C 16.480469 -46.851562 16.585938 -50.730469 16.695312 -54.609375 C 16.695312 -55.578125 17.019531 -56.546875 17.554688 -57.515625 C 18.957031 -58.054688 20.355469 -58.164062 21.757812 -58.164062 C 22.617188 -58.164062 23.589844 -58.164062 24.558594 -58.054688 C 24.558594 -56.546875 24.558594 -55.253906 24.558594 -53.855469 C 24.558594 -52.453125 24.664062 -50.945312 25.3125 -49.761719 C 26.171875 -49.332031 27.789062 -49.222656 29.621094 -49.222656 C 32.957031 -49.222656 37.050781 -49.761719 38.882812 -50.515625 Z M 16.265625 -24.449219 C 16.480469 -24.449219 16.695312 -24.558594 16.910156 -24.558594 C 18.203125 -24.449219 19.601562 -24.34375 21.003906 -24.125 C 22.726562 -24.125 24.664062 -23.265625 24.664062 -21.328125 C 24.664062 -19.820312 24.664062 -18.308594 24.449219 -16.695312 C 24.34375 -15.292969 23.695312 -14.539062 22.296875 -14.433594 C 21.542969 -14.324219 20.789062 -14.21875 20.035156 -14.21875 C 19.496094 -14.21875 18.957031 -14.324219 18.417969 -14.324219 C 17.019531 -14.539062 16.371094 -15.292969 16.15625 -16.910156 C 15.832031 -19.386719 15.941406 -21.863281 16.265625 -24.449219 Z M 16.265625 -24.449219 "/></g></g></g><g fill="#ffffff" fill-opacity="1"><g transform="translate(192.55997, 275.674654)"><g><path d="M 38.34375 -52.023438 C 38.34375 -55.902344 38.453125 -59.886719 38.558594 -63.761719 C 38.558594 -64.515625 38.558594 -65.164062 38.667969 -65.917969 C 38.882812 -67.101562 39.097656 -68.394531 38.667969 -69.578125 C 38.238281 -70.550781 37.804688 -71.625 37.375 -72.59375 C 36.191406 -75.613281 32.097656 -75.71875 29.296875 -75.71875 C 27.035156 -75.71875 24.664062 -75.828125 22.402344 -75.828125 C 16.800781 -75.828125 9.371094 -75.289062 5.277344 -70.980469 C -0.109375 -65.488281 1.078125 -57.515625 0.753906 -50.621094 C 0.539062 -46.960938 0.214844 -43.300781 0.109375 -39.636719 C 0 -34.683594 0 -29.835938 0.109375 -24.988281 C 0.214844 -20.25 -0.214844 -15.402344 0.863281 -10.769531 C 2.152344 -3.984375 4.199219 -1.507812 11.09375 -0.644531 C 13.785156 -0.214844 16.371094 -0.109375 19.0625 -0.109375 C 24.019531 -0.109375 32.851562 -0.324219 36.621094 -3.230469 C 38.019531 -4.308594 38.773438 -5.707031 38.992188 -7.433594 C 39.207031 -9.585938 39.207031 -11.738281 39.207031 -13.894531 C 39.207031 -15.941406 38.992188 -17.878906 38.773438 -19.820312 C 38.773438 -20.464844 38.558594 -21.21875 38.128906 -21.863281 C 37.484375 -22.835938 36.621094 -23.804688 35.328125 -23.695312 C 33.605469 -23.695312 25.417969 -23.695312 24.558594 -21.972656 C 23.910156 -19.820312 24.558594 -17.878906 23.371094 -16.265625 C 22.1875 -16.371094 21.109375 -16.371094 20.035156 -16.371094 C 19.925781 -16.371094 19.710938 -16.371094 19.601562 -16.371094 C 17.554688 -16.585938 16.480469 -17.773438 16.371094 -19.710938 C 16.371094 -22.617188 16.371094 -25.527344 16.371094 -28.433594 C 16.371094 -28.652344 16.480469 -28.867188 16.585938 -29.082031 C 17.449219 -29.296875 18.308594 -29.40625 19.171875 -29.511719 C 20.464844 -29.511719 21.757812 -29.511719 23.15625 -29.621094 C 24.019531 -29.726562 24.988281 -29.835938 25.957031 -30.160156 C 27.25 -30.480469 28.113281 -31.449219 28.328125 -32.851562 C 28.433594 -34.035156 28.542969 -35.21875 28.542969 -36.40625 C 28.433594 -38.453125 28.113281 -40.5 28.003906 -42.542969 C 28.003906 -45.453125 25.742188 -46.960938 23.050781 -46.960938 C 21.109375 -46.851562 19.171875 -46.851562 17.234375 -46.746094 C 16.695312 -46.746094 16.265625 -46.746094 15.726562 -46.746094 C 15.726562 -49.332031 15.726562 -51.808594 15.726562 -54.285156 C 15.832031 -55.039062 16.15625 -55.683594 16.371094 -56.4375 C 17.988281 -57.191406 19.601562 -57.410156 21.21875 -57.410156 C 21.863281 -57.410156 22.617188 -57.410156 23.371094 -57.300781 C 23.695312 -55.683594 23.910156 -54.285156 24.125 -52.777344 C 24.234375 -51.054688 24.988281 -49.867188 26.496094 -49.113281 C 28.652344 -49.222656 30.695312 -49.222656 32.742188 -49.332031 C 33.496094 -49.4375 34.25 -49.867188 35.113281 -49.976562 C 36.511719 -50.191406 37.484375 -50.945312 38.34375 -52.023438 Z M 38.34375 -52.023438 "/></g></g></g><g fill="#ffffff" fill-opacity="1"><g transform="translate(233.918727, 275.674654)"><g><path d="M 27.464844 -30.804688 C 27.464844 -31.019531 27.359375 -31.128906 27.359375 -31.34375 C 27.25 -31.773438 27.035156 -32.203125 27.359375 -32.527344 C 27.574219 -32.742188 27.789062 -32.742188 28.113281 -32.851562 C 29.1875 -32.957031 30.265625 -33.175781 31.34375 -33.496094 C 36.511719 -35.652344 37.050781 -41.898438 37.265625 -46.746094 C 37.484375 -50.40625 37.484375 -53.960938 37.699219 -57.625 C 38.019531 -62.148438 39.207031 -68.289062 36.40625 -72.273438 C 34.464844 -74.964844 30.914062 -75.828125 27.679688 -75.933594 C 25.632812 -76.042969 23.480469 -76.042969 21.433594 -76.042969 C 17.339844 -76.042969 13.25 -75.933594 9.046875 -75.933594 C 2.800781 -75.933594 1.617188 -72.273438 1.292969 -66.886719 C 1.183594 -62.6875 1.078125 -58.484375 0.863281 -54.285156 C 0.863281 -53.960938 0.863281 -53.640625 0.863281 -53.207031 C 0.644531 -48.683594 0.429688 -44.054688 0.863281 -39.421875 C 0.863281 -38.453125 0.863281 -37.484375 0.753906 -36.621094 C 0.539062 -34.25 0.324219 -31.882812 0.109375 -29.511719 C 0 -27.789062 0.109375 -26.066406 0.214844 -24.34375 C 0.214844 -21.109375 0.429688 -17.878906 0.429688 -14.648438 C 0.429688 -10.664062 0.214844 -6.785156 0.109375 -2.90625 C 0.109375 0.539062 3.769531 1.078125 6.570312 1.078125 C 9.585938 1.078125 13.464844 0.753906 14.109375 -2.800781 C 14.863281 -7.109375 14.757812 -11.523438 14.539062 -15.832031 C 14.539062 -17.773438 14.863281 -19.710938 14.972656 -21.648438 C 16.585938 -18.742188 17.554688 -15.402344 18.957031 -12.386719 C 20.355469 -8.941406 21.863281 -5.601562 23.371094 -2.261719 C 24.664062 0.539062 25.742188 1.292969 28.972656 1.292969 C 29.726562 1.292969 30.480469 1.398438 31.449219 1.398438 C 33.710938 1.398438 36.40625 1.078125 37.484375 -0.753906 C 38.558594 -2.476562 37.589844 -4.847656 36.730469 -6.679688 C 33.066406 -14.539062 30.160156 -22.617188 27.464844 -30.804688 Z M 21.21875 -48.359375 C 19.386719 -48.144531 17.554688 -47.285156 15.726562 -47.285156 C 15.402344 -47.285156 15.1875 -47.390625 14.863281 -47.390625 C 14.003906 -49.761719 14.21875 -57.839844 15.292969 -60.964844 C 15.726562 -61.285156 16.265625 -61.394531 16.695312 -61.394531 C 17.234375 -61.394531 17.878906 -61.285156 18.417969 -61.179688 C 19.496094 -60.964844 20.574219 -60.640625 21.757812 -60.425781 C 22.617188 -60.316406 23.050781 -59.886719 23.050781 -59.023438 C 23.15625 -58.269531 23.15625 -57.410156 23.15625 -56.65625 C 23.15625 -55.039062 23.050781 -53.53125 23.050781 -52.023438 C 22.941406 -50.515625 22.726562 -49.222656 21.21875 -48.359375 Z M 21.21875 -48.359375 "/></g></g></g><g clip-path="url(#c3a6e9e51c)"><path fill="#f4b902" d="M 273.035156 298.453125 C 273.035156 298.449219 273.035156 298.441406 273.035156 298.4375 C 273.035156 288.621094 265.074219 280.660156 255.253906 280.660156 C 224.816406 280.660156 155.945312 280.660156 125.507812 280.660156 C 115.691406 280.660156 107.730469 288.621094 107.730469 298.4375 C 107.730469 298.441406 107.730469 298.449219 107.730469 298.453125 C 107.730469 305.007812 110.335938 311.292969 114.96875 315.929688 C 119.605469 320.5625 125.894531 323.167969 132.449219 323.167969 C 162.925781 323.167969 217.839844 323.167969 248.316406 323.167969 C 254.871094 323.167969 261.160156 320.5625 265.792969 315.929688 C 270.429688 311.292969 273.035156 305.007812 273.035156 298.453125 Z M 267.367188 298.453125 C 267.367188 303.503906 265.359375 308.347656 261.785156 311.921875 C 258.214844 315.492188 253.371094 317.5 248.316406 317.5 C 217.839844 317.5 162.925781 317.5 132.449219 317.5 C 127.394531 317.5 122.550781 315.492188 118.976562 311.921875 C 115.40625 308.347656 113.398438 303.503906 113.398438 298.453125 C 113.398438 298.449219 113.398438 298.441406 113.398438 298.4375 C 113.398438 291.75 118.820312 286.328125 125.507812 286.328125 C 125.507812 286.328125 255.253906 286.328125 255.253906 286.328125 C 261.945312 286.328125 267.367188 291.75 267.367188 298.4375 Z M 267.367188 298.453125 " fill-opacity="1" fill-rule="evenodd"/></g><g fill="#ffffff" fill-opacity="1"><g transform="translate(142.173554, 275.949064)"><g><path d="M -29.691406 -17.265625 C -29.894531 -16.976562 -30.101562 -16.648438 -30.347656 -16.402344 C -30.960938 -15.582031 -31.289062 -14.679688 -31.414062 -13.738281 C -31.617188 -11.976562 -31.660156 -10.253906 -31.660156 -8.488281 C -31.660156 -7.832031 -31.660156 -7.175781 -31.660156 -6.519531 C -31.660156 -6.398438 -31.660156 -6.273438 -31.660156 -6.152344 C -31.617188 -4.921875 -31.578125 -3.691406 -31.535156 -2.460938 C -31.414062 -0.613281 -30.921875 -0.0820312 -28.992188 -0.0820312 C -28.664062 -0.0820312 -28.296875 -0.0390625 -27.929688 -0.0390625 C -27.109375 -0.0390625 -26.246094 0 -25.46875 -0.285156 C -25.261719 -0.328125 -25.058594 -0.410156 -24.933594 -0.574219 C -24.8125 -0.777344 -24.769531 -1.023438 -24.730469 -1.269531 C -24.730469 -1.476562 -24.730469 -1.640625 -24.730469 -1.804688 C -24.03125 -1.804688 -23.375 -1.804688 -22.679688 -1.804688 C -22.144531 -1.761719 -21.570312 -1.761719 -20.996094 -1.722656 C -18.289062 -1.476562 -15.582031 -1.269531 -12.835938 -1.3125 C -9.0625 -1.394531 -5.25 -1.269531 -1.433594 -1.269531 C 1.433594 -1.269531 1.515625 -2.417969 1.515625 -4.839844 C 1.515625 -5.945312 1.1875 -7.136719 0.328125 -7.875 C -1.3125 -9.226562 -4.304688 -8.53125 -6.234375 -8.488281 C -6.765625 -8.488281 -7.300781 -8.53125 -7.792969 -8.53125 C -8.816406 -8.53125 -9.84375 -8.53125 -10.828125 -8.53125 C -10.992188 -8.53125 -11.15625 -8.570312 -11.320312 -8.613281 C -11.359375 -8.816406 -11.402344 -9.023438 -11.402344 -9.226562 C -11.484375 -9.964844 -11.484375 -10.703125 -11.523438 -11.402344 C -11.648438 -12.425781 -11.730469 -13.492188 -11.933594 -14.515625 C -12.261719 -16.199219 -13.738281 -17.429688 -15.460938 -17.59375 C -16.402344 -17.675781 -17.304688 -17.796875 -18.25 -17.878906 C -19.726562 -18.003906 -21.242188 -18.125 -22.761719 -18.125 C -24.566406 -18.207031 -26.328125 -18.003906 -28.132812 -17.796875 C -28.707031 -17.757812 -29.238281 -17.59375 -29.691406 -17.265625 Z M -19.683594 -12.589844 C -18.660156 -12.425781 -18.085938 -12.097656 -17.921875 -10.992188 C -17.796875 -10.417969 -17.757812 -9.761719 -17.757812 -9.144531 C -17.796875 -8.367188 -18.289062 -7.996094 -19.070312 -8.039062 C -20.464844 -8.121094 -21.859375 -8.078125 -23.253906 -8.121094 C -24.769531 -8.285156 -25.058594 -8.695312 -25.058594 -10.292969 C -25.058594 -10.417969 -25.058594 -10.582031 -25.058594 -10.703125 C -25.058594 -11.523438 -24.894531 -12.304688 -23.949219 -12.632812 C -23.621094 -12.714844 -23.253906 -12.714844 -22.882812 -12.753906 C -22.882812 -12.753906 -22.84375 -12.753906 -22.800781 -12.753906 C -21.777344 -12.753906 -20.710938 -12.753906 -19.683594 -12.589844 Z M -19.683594 -12.589844 "/></g></g></g><g fill="#ffffff" fill-opacity="1"><g transform="translate(142.173554, 256.96429)"><g><path d="M -3.773438 -20.175781 C -5.003906 -20.175781 -6.152344 -19.726562 -7.339844 -19.519531 C -8.734375 -19.316406 -10.171875 -19.070312 -11.566406 -18.863281 C -16.363281 -18.085938 -21.121094 -17.304688 -25.917969 -16.609375 C -27.066406 -16.445312 -28.175781 -16.28125 -29.28125 -16.074219 C -29.691406 -16.035156 -30.058594 -15.953125 -30.429688 -15.789062 C -31.863281 -15.378906 -32.234375 -13.410156 -32.234375 -12.140625 C -32.234375 -11.523438 -32.152344 -10.910156 -32.152344 -10.292969 C -32.152344 -10.046875 -32.152344 -9.84375 -32.191406 -9.597656 C -32.234375 -9.515625 -32.234375 -9.390625 -32.234375 -9.308594 C -32.234375 -8.324219 -30.757812 -7.136719 -29.894531 -6.890625 C -29.566406 -6.765625 -29.28125 -6.601562 -28.992188 -6.480469 C -28.175781 -6.070312 -27.3125 -5.863281 -26.453125 -5.699219 C -25.507812 -5.535156 -24.566406 -5.453125 -23.703125 -5.167969 C -21.980469 -4.632812 -20.21875 -4.265625 -18.414062 -3.894531 C -16.363281 -3.445312 -14.269531 -3.15625 -12.222656 -2.664062 C -9.308594 -1.886719 -6.273438 -1.679688 -3.402344 -0.738281 C -2.417969 -0.410156 -1.351562 0.0390625 -0.285156 -0.0390625 C 0.738281 -0.121094 0.941406 -0.65625 0.941406 -1.597656 C 0.941406 -2.171875 0.859375 -2.746094 0.859375 -3.320312 C 0.859375 -3.402344 0.859375 -3.484375 0.859375 -3.566406 C 0.902344 -4.101562 1.023438 -4.632812 1.023438 -5.125 C 1.023438 -6.726562 -0.449219 -7.257812 -1.761719 -7.546875 C -1.886719 -7.585938 -2.050781 -7.585938 -2.132812 -7.710938 C -2.253906 -7.792969 -2.296875 -7.914062 -2.296875 -8.078125 C -2.296875 -8.160156 -2.253906 -8.203125 -2.253906 -8.285156 C -2.214844 -9.023438 -2.089844 -9.84375 -2.089844 -10.582031 C -2.089844 -10.703125 -2.089844 -10.785156 -2.089844 -10.867188 C -2.132812 -11.113281 -2.171875 -11.359375 -2.171875 -11.605469 C -2.171875 -11.976562 -2.050781 -12.304688 -1.597656 -12.632812 C -0.941406 -13.125 0 -13.125 0.777344 -13.289062 C 0.902344 -13.289062 1.066406 -13.328125 1.1875 -13.371094 C 2.050781 -13.492188 2.910156 -13.65625 3.773438 -13.820312 C 4.347656 -13.945312 4.960938 -14.066406 5.535156 -14.3125 C 7.011719 -14.96875 7.09375 -16.445312 7.09375 -17.878906 C 7.09375 -18.371094 7.054688 -18.863281 6.929688 -19.355469 C 6.847656 -19.847656 6.644531 -20.382812 6.234375 -20.710938 C 5.660156 -21.203125 4.839844 -21.121094 4.101562 -21.039062 C 1.476562 -20.75 -1.148438 -20.421875 -3.773438 -20.175781 Z M -9.023438 -11.851562 C -8.980469 -11.769531 -8.941406 -11.648438 -8.898438 -11.523438 C -8.859375 -11.320312 -8.734375 -10.582031 -8.734375 -9.925781 C -8.734375 -9.269531 -8.859375 -8.652344 -9.351562 -8.777344 C -9.964844 -8.980469 -15.953125 -10.335938 -15.953125 -10.664062 C -15.953125 -10.703125 -15.953125 -10.746094 -15.953125 -10.785156 C -15.089844 -10.992188 -14.191406 -11.195312 -13.328125 -11.320312 C -12.550781 -11.441406 -9.597656 -12.550781 -9.023438 -11.851562 Z M -9.023438 -11.851562 "/></g></g></g><g fill="#ffffff" fill-opacity="1"><g transform="translate(142.173554, 235.027249)"><g><path d="M -10.785156 -13.738281 C -11.113281 -13.574219 -12.671875 -12.589844 -13 -12.796875 C -13.289062 -13 -13.371094 -14.558594 -13.492188 -14.96875 C -13.738281 -15.664062 -14.109375 -16.238281 -14.679688 -16.691406 C -15.707031 -17.46875 -17.304688 -17.511719 -18.535156 -17.632812 C -20.136719 -17.796875 -21.734375 -17.878906 -23.335938 -17.960938 C -25.097656 -18.003906 -26.945312 -18.125 -28.664062 -17.878906 C -29.28125 -17.796875 -29.9375 -17.675781 -30.429688 -17.265625 C -32.070312 -16.074219 -32.519531 -12.960938 -32.5625 -11.113281 C -32.5625 -8.734375 -32.480469 -6.355469 -32.480469 -3.9375 C -32.480469 -1.148438 -30.878906 -0.285156 -28.378906 -0.285156 C -26.535156 -0.285156 -24.6875 -0.246094 -22.800781 -0.203125 C -22.636719 -0.203125 -22.515625 -0.203125 -22.351562 -0.203125 C -20.300781 -0.121094 -18.25 -0.0820312 -16.238281 -0.285156 C -15.828125 -0.328125 -15.378906 -0.328125 -14.96875 -0.285156 C -13.902344 -0.203125 -12.878906 -0.0820312 -11.8125 -0.0390625 C -11.074219 0 -10.292969 -0.0820312 -9.515625 -0.121094 C -8.121094 -0.164062 -6.683594 -0.285156 -5.25 -0.328125 C -3.527344 -0.328125 -1.761719 -0.246094 -0.0390625 -0.246094 C 0.820312 -0.246094 1.066406 -0.492188 1.351562 -1.3125 C 1.558594 -1.96875 1.640625 -2.625 1.640625 -3.238281 C 1.640625 -4.59375 1.515625 -6.726562 -0.121094 -6.972656 C -2.050781 -7.300781 -3.976562 -7.175781 -5.90625 -7.09375 C -6.765625 -7.054688 -7.585938 -7.21875 -8.449219 -7.21875 C -8.078125 -7.21875 -7.339844 -7.875 -7.011719 -8.039062 C -6.480469 -8.285156 -5.988281 -8.449219 -5.453125 -8.652344 C -4.222656 -9.105469 -3.035156 -9.761719 -1.886719 -10.335938 C 0.53125 -11.523438 2.910156 -12.796875 5.289062 -14.109375 C 6.890625 -15.050781 7.054688 -15.460938 7.136719 -17.304688 C 7.136719 -18.125 7.09375 -20.421875 6.273438 -20.914062 C 5.332031 -21.652344 3.363281 -20.710938 2.5 -20.21875 C -1.84375 -17.921875 -6.316406 -15.789062 -10.785156 -13.738281 Z M -21.160156 -10.253906 C -20.957031 -10.128906 -20.792969 -9.964844 -20.628906 -9.761719 C -20.300781 -9.226562 -20.136719 -8.53125 -20.09375 -7.832031 C -20.09375 -7.75 -20.054688 -7.667969 -20.054688 -7.585938 C -20.054688 -7.464844 -20.09375 -7.339844 -20.136719 -7.21875 C -20.421875 -6.480469 -21.285156 -6.683594 -21.859375 -6.644531 C -22.800781 -6.601562 -23.746094 -6.519531 -24.6875 -6.601562 C -25.34375 -6.765625 -25.46875 -6.929688 -25.550781 -7.667969 C -25.589844 -7.914062 -25.589844 -8.121094 -25.589844 -8.324219 C -25.589844 -8.53125 -25.589844 -8.777344 -25.550781 -8.980469 C -25.507812 -9.433594 -25.425781 -9.964844 -25.097656 -10.210938 C -24.894531 -10.335938 -24.605469 -10.375 -24.359375 -10.417969 C -23.992188 -10.457031 -23.621094 -10.5 -23.253906 -10.539062 C -22.554688 -10.621094 -21.777344 -10.664062 -21.160156 -10.253906 Z M -21.160156 -10.253906 "/></g></g></g><g fill="#ffffff" fill-opacity="1"><g transform="translate(142.173554, 213.0082)"><g><path d="M -3.773438 -20.175781 C -5.003906 -20.175781 -6.152344 -19.726562 -7.339844 -19.519531 C -8.734375 -19.316406 -10.171875 -19.070312 -11.566406 -18.863281 C -16.363281 -18.085938 -21.121094 -17.304688 -25.917969 -16.609375 C -27.066406 -16.445312 -28.175781 -16.28125 -29.28125 -16.074219 C -29.691406 -16.035156 -30.058594 -15.953125 -30.429688 -15.789062 C -31.863281 -15.378906 -32.234375 -13.410156 -32.234375 -12.140625 C -32.234375 -11.523438 -32.152344 -10.910156 -32.152344 -10.292969 C -32.152344 -10.046875 -32.152344 -9.84375 -32.191406 -9.597656 C -32.234375 -9.515625 -32.234375 -9.390625 -32.234375 -9.308594 C -32.234375 -8.324219 -30.757812 -7.136719 -29.894531 -6.890625 C -29.566406 -6.765625 -29.28125 -6.601562 -28.992188 -6.480469 C -28.175781 -6.070312 -27.3125 -5.863281 -26.453125 -5.699219 C -25.507812 -5.535156 -24.566406 -5.453125 -23.703125 -5.167969 C -21.980469 -4.632812 -20.21875 -4.265625 -18.414062 -3.894531 C -16.363281 -3.445312 -14.269531 -3.15625 -12.222656 -2.664062 C -9.308594 -1.886719 -6.273438 -1.679688 -3.402344 -0.738281 C -2.417969 -0.410156 -1.351562 0.0390625 -0.285156 -0.0390625 C 0.738281 -0.121094 0.941406 -0.65625 0.941406 -1.597656 C 0.941406 -2.171875 0.859375 -2.746094 0.859375 -3.320312 C 0.859375 -3.402344 0.859375 -3.484375 0.859375 -3.566406 C 0.902344 -4.101562 1.023438 -4.632812 1.023438 -5.125 C 1.023438 -6.726562 -0.449219 -7.257812 -1.761719 -7.546875 C -1.886719 -7.585938 -2.050781 -7.585938 -2.132812 -7.710938 C -2.253906 -7.792969 -2.296875 -7.914062 -2.296875 -8.078125 C -2.296875 -8.160156 -2.253906 -8.203125 -2.253906 -8.285156 C -2.214844 -9.023438 -2.089844 -9.84375 -2.089844 -10.582031 C -2.089844 -10.703125 -2.089844 -10.785156 -2.089844 -10.867188 C -2.132812 -11.113281 -2.171875 -11.359375 -2.171875 -11.605469 C -2.171875 -11.976562 -2.050781 -12.304688 -1.597656 -12.632812 C -0.941406 -13.125 0 -13.125 0.777344 -13.289062 C 0.902344 -13.289062 1.066406 -13.328125 1.1875 -13.371094 C 2.050781 -13.492188 2.910156 -13.65625 3.773438 -13.820312 C 4.347656 -13.945312 4.960938 -14.066406 5.535156 -14.3125 C 7.011719 -14.96875 7.09375 -16.445312 7.09375 -17.878906 C 7.09375 -18.371094 7.054688 -18.863281 6.929688 -19.355469 C 6.847656 -19.847656 6.644531 -20.382812 6.234375 -20.710938 C 5.660156 -21.203125 4.839844 -21.121094 4.101562 -21.039062 C 1.476562 -20.75 -1.148438 -20.421875 -3.773438 -20.175781 Z M -9.023438 -11.851562 C -8.980469 -11.769531 -8.941406 -11.648438 -8.898438 -11.523438 C -8.859375 -11.320312 -8.734375 -10.582031 -8.734375 -9.925781 C -8.734375 -9.269531 -8.859375 -8.652344 -9.351562 -8.777344 C -9.964844 -8.980469 -15.953125 -10.335938 -15.953125 -10.664062 C -15.953125 -10.703125 -15.953125 -10.746094 -15.953125 -10.785156 C -15.089844 -10.992188 -14.191406 -11.195312 -13.328125 -11.320312 C -12.550781 -11.441406 -9.597656 -12.550781 -9.023438 -11.851562 Z M -9.023438 -11.851562 "/></g></g></g><g fill="#ffffff" fill-opacity="1"><g transform="translate(142.173554, 191.071159)"><g><path d="M -28.460938 -17.921875 C -28.953125 -17.757812 -29.484375 -17.59375 -29.855469 -17.265625 C -31.78125 -15.625 -32.109375 -14.269531 -32.109375 -11.851562 C -32.109375 -11.074219 -32.109375 -10.253906 -32.070312 -9.472656 C -32.109375 -9.472656 -32.109375 -9.269531 -32.109375 -8.898438 C -32.109375 -7.21875 -31.90625 -2.296875 -31.863281 -1.722656 C -31.699219 -0.820312 -31.535156 -0.285156 -30.511719 -0.0390625 C -30.183594 0 -29.8125 0 -29.484375 0 C -28.339844 -0.0390625 -27.191406 -0.0820312 -26.042969 -0.121094 C -25.589844 -0.121094 -25.097656 -0.164062 -24.6875 -0.367188 C -23.992188 -0.738281 -24.113281 -1.433594 -24.03125 -2.132812 C -23.992188 -2.171875 -23.992188 -2.253906 -23.949219 -2.296875 C -23.910156 -2.335938 -23.828125 -2.335938 -23.785156 -2.335938 C -20.628906 -2.296875 -17.511719 -2.253906 -14.351562 -2.132812 C -13.820312 -2.132812 -13.371094 -2.007812 -12.835938 -1.925781 C -12.304688 -1.84375 -11.6875 -1.925781 -11.113281 -1.925781 C -10.089844 -1.925781 -9.0625 -1.886719 -8.039062 -1.886719 C -6.601562 -1.886719 -5.167969 -1.84375 -3.730469 -1.886719 C -2.707031 -1.925781 -1.679688 -2.050781 -0.65625 -1.925781 C -0.492188 -1.886719 -0.328125 -1.886719 -0.164062 -1.925781 C 0.65625 -1.96875 1.269531 -2.460938 1.476562 -3.28125 C 1.515625 -3.566406 1.597656 -3.894531 1.597656 -4.183594 C 1.515625 -5.453125 1.476562 -6.765625 1.394531 -8.039062 C 1.3125 -8.980469 1.148438 -9.925781 0.738281 -10.785156 C 0.410156 -11.402344 0.164062 -11.976562 -0.121094 -12.589844 C -0.820312 -14.3125 -2.132812 -15.417969 -3.609375 -16.402344 C -3.730469 -16.445312 -3.894531 -16.527344 -4.019531 -16.566406 C -5.453125 -17.019531 -6.890625 -17.511719 -8.324219 -17.921875 C -8.980469 -18.085938 -9.679688 -18.167969 -10.335938 -18.289062 C -12.140625 -18.617188 -13.902344 -18.863281 -15.707031 -18.824219 C -18.042969 -18.78125 -20.382812 -18.699219 -22.71875 -18.824219 C -24.6875 -18.945312 -26.617188 -18.617188 -28.460938 -17.921875 Z M -10.171875 -12.015625 C -9.515625 -11.933594 -8.816406 -11.851562 -8.285156 -11.441406 C -7.503906 -10.910156 -7.21875 -9.882812 -7.175781 -8.898438 C -7.175781 -8.734375 -7.257812 -8.652344 -7.421875 -8.652344 C -10.539062 -8.816406 -13.574219 -9.023438 -16.691406 -9.1875 C -18.125 -9.269531 -19.601562 -9.351562 -21.078125 -9.390625 C -21.941406 -9.433594 -22.800781 -9.351562 -23.664062 -9.472656 C -23.746094 -9.472656 -23.828125 -9.472656 -23.867188 -9.554688 C -23.949219 -9.597656 -23.949219 -9.679688 -23.949219 -9.761719 C -23.910156 -10.171875 -23.910156 -10.539062 -23.910156 -10.949219 C -23.910156 -11.238281 -23.910156 -11.566406 -23.746094 -11.8125 C -23.5 -12.304688 -22.84375 -12.425781 -22.269531 -12.507812 C -18.25 -12.878906 -14.148438 -12.425781 -10.171875 -12.015625 Z M -10.171875 -12.015625 "/></g></g></g><g fill="#ffffff" fill-opacity="1"><g transform="translate(142.173554, 171.389325)"><g><path d="M -31.085938 -9.882812 C -31.371094 -9.882812 -31.617188 -9.761719 -31.824219 -9.636719 C -31.988281 -9.554688 -32.109375 -9.472656 -32.191406 -9.351562 C -32.316406 -9.1875 -32.316406 -8.980469 -32.316406 -8.816406 C -32.316406 -8.53125 -32.316406 -8.242188 -32.316406 -7.957031 C -32.316406 -7.875 -32.316406 -7.792969 -32.316406 -7.75 C -32.316406 -5.617188 -32.316406 -3.484375 -32.316406 -1.351562 C -32.316406 -1.1875 -32.316406 -1.023438 -32.191406 -0.902344 C -32.109375 -0.738281 -31.90625 -0.613281 -31.699219 -0.53125 C -30.59375 -0.0820312 -29.363281 0.0820312 -28.132812 -0.0390625 C -26.207031 -0.164062 -26 -0.285156 -26 -2.214844 C -24.933594 -2.171875 -23.867188 -2.132812 -22.800781 -2.050781 C -21.53125 -1.96875 -20.257812 -1.761719 -18.945312 -1.679688 C -16.238281 -1.515625 -13.535156 -1.394531 -11.851562 -1.3125 C -7.667969 -1.394531 -4.511719 -1.269531 -1.351562 -1.476562 C -0.0820312 -1.597656 0.738281 -2.171875 1.230469 -3.320312 C 1.394531 -3.648438 1.394531 -4.058594 1.558594 -4.386719 C 1.679688 -4.714844 1.722656 -5.042969 1.722656 -5.371094 C 1.722656 -6.191406 1.433594 -6.929688 1.230469 -7.710938 C 1.1875 -7.832031 1.066406 -7.957031 0.984375 -8.078125 C 0.449219 -8.734375 -0.203125 -9.105469 -1.105469 -9.105469 C -1.84375 -9.105469 -2.625 -9.105469 -3.402344 -9.144531 C -4.140625 -9.144531 -4.921875 -9.105469 -5.660156 -9.226562 C -6.683594 -9.390625 -7.667969 -9.390625 -8.695312 -9.433594 C -9.597656 -9.433594 -10.5 -9.390625 -11.402344 -9.597656 C -11.605469 -9.679688 -11.851562 -9.679688 -12.097656 -9.679688 C -15.828125 -9.800781 -19.519531 -9.84375 -23.253906 -9.84375 C -25.058594 -9.882812 -26.863281 -9.925781 -28.664062 -9.925781 C -28.953125 -9.964844 -29.199219 -9.964844 -29.484375 -9.925781 C -29.527344 -9.925781 -29.527344 -9.925781 -29.566406 -9.925781 C -30.101562 -9.925781 -30.59375 -9.925781 -31.085938 -9.882812 Z M -31.085938 -9.882812 "/></g></g></g><g fill="#ffffff" fill-opacity="1"><g transform="translate(142.173554, 160.605318)"><g><path d="M -31.824219 -13.863281 C -31.824219 -13.65625 -31.824219 -13.410156 -31.824219 -13.207031 C -31.824219 -11.484375 -31.90625 -9.761719 -31.90625 -8.039062 C -31.90625 -7.175781 -31.90625 -6.355469 -31.824219 -5.496094 C -31.78125 -4.59375 -31.496094 -2.460938 -30.511719 -2.007812 C -30.140625 -1.84375 -29.773438 -1.679688 -29.402344 -1.597656 C -26 -0.941406 -22.351562 -0.902344 -18.90625 -1.3125 C -17.796875 -1.433594 -17.429688 -1.679688 -16.730469 -2.582031 C -15.089844 -4.59375 -13.410156 -6.601562 -11.769531 -8.613281 C -11.359375 -9.144531 -10.910156 -9.679688 -10.292969 -10.007812 C -9.308594 -10.582031 -8.078125 -10.457031 -6.890625 -10.335938 C -6.683594 -10.292969 -6.398438 -10.253906 -6.273438 -10.089844 C -6.191406 -9.964844 -6.152344 -9.800781 -6.109375 -9.679688 C -6.070312 -9.515625 -5.90625 -8.695312 -5.90625 -8.039062 C -5.90625 -7.585938 -5.988281 -7.257812 -6.273438 -7.257812 C -7.054688 -6.890625 -8.039062 -7.054688 -8.859375 -7.054688 C -9.269531 -7.011719 -9.71875 -6.972656 -10.046875 -6.683594 C -10.417969 -6.316406 -10.457031 -5.742188 -10.5 -5.25 C -10.5 -4.714844 -10.539062 -4.222656 -10.539062 -3.691406 C -10.539062 -3.484375 -10.539062 -3.320312 -10.539062 -3.117188 C -10.539062 -0.820312 -9.636719 -0.328125 -7.503906 -0.121094 C -5.78125 -0.0390625 -4.058594 0 -2.378906 -0.0820312 C -1.1875 -0.164062 -0.53125 -0.246094 0.203125 -1.269531 C 0.492188 -1.679688 0.820312 -2.132812 0.984375 -2.625 C 1.148438 -3.117188 1.066406 -3.609375 1.148438 -4.140625 C 1.1875 -4.632812 1.230469 -5.125 1.269531 -5.660156 C 1.351562 -6.601562 1.476562 -7.546875 1.476562 -8.488281 C 1.476562 -9.226562 1.433594 -9.964844 1.394531 -10.703125 C 1.351562 -11.851562 1.3125 -13 1.269531 -14.148438 C 1.230469 -15.089844 0.738281 -17.019531 -0.449219 -17.140625 C -1.269531 -17.265625 -2.050781 -17.429688 -2.828125 -17.429688 C -4.632812 -17.511719 -6.4375 -17.511719 -8.285156 -17.511719 C -9.597656 -17.46875 -10.949219 -17.429688 -12.304688 -17.347656 C -12.835938 -17.265625 -13.410156 -17.222656 -13.902344 -16.9375 C -14.230469 -16.773438 -14.515625 -16.527344 -14.804688 -16.238281 C -16.976562 -14.066406 -18.332031 -11.238281 -20.382812 -8.941406 C -20.75 -8.53125 -21.160156 -8.121094 -21.695312 -7.914062 C -22.1875 -7.667969 -22.800781 -7.585938 -23.292969 -7.832031 C -23.828125 -8.078125 -23.867188 -8.777344 -23.867188 -9.433594 C -23.867188 -9.597656 -23.867188 -9.800781 -23.867188 -9.925781 C -23.867188 -10.046875 -23.867188 -10.128906 -23.867188 -10.210938 C -23.867188 -10.292969 -23.867188 -10.417969 -23.785156 -10.539062 C -23.746094 -10.621094 -23.664062 -10.664062 -23.582031 -10.703125 C -23.128906 -10.867188 -22.636719 -10.785156 -22.144531 -10.785156 C -21.039062 -10.785156 -20.875 -11.195312 -20.75 -12.097656 C -20.75 -13.082031 -20.710938 -14.109375 -20.710938 -15.089844 C -20.710938 -15.253906 -20.710938 -15.417969 -20.710938 -15.582031 C -20.710938 -16.074219 -20.75 -16.527344 -21.039062 -16.9375 C -21.816406 -18.042969 -23.335938 -17.714844 -24.484375 -17.757812 C -24.605469 -17.796875 -24.730469 -17.796875 -24.851562 -17.796875 C -26 -17.796875 -27.109375 -17.757812 -28.257812 -17.796875 C -28.953125 -17.839844 -29.648438 -17.796875 -30.347656 -17.46875 C -31.660156 -16.773438 -31.824219 -15.214844 -31.824219 -13.863281 Z M -31.824219 -13.863281 "/></g></g></g><g fill="#ffffff" fill-opacity="1"><g transform="translate(142.173554, 141.948577)"><g><path d="M -9.472656 -17.960938 C -9.472656 -16.609375 -9.433594 -15.296875 -9.1875 -13.984375 C -9.0625 -13.574219 -8.898438 -13.289062 -8.734375 -13.164062 C -8.324219 -13.042969 -7.914062 -13.042969 -7.503906 -13 C -7.175781 -12.960938 -6.765625 -12.878906 -6.5625 -12.589844 C -6.191406 -12.222656 -6.191406 -11.113281 -6.191406 -10.621094 C -6.191406 -9.472656 -6.234375 -7.667969 -7.792969 -7.667969 C -9.0625 -7.628906 -10.335938 -7.667969 -11.566406 -7.667969 C -11.6875 -7.667969 -11.769531 -7.710938 -11.851562 -7.75 C -11.894531 -8.160156 -11.976562 -8.53125 -12.015625 -8.898438 C -12.058594 -9.226562 -12.058594 -9.515625 -12.058594 -9.800781 C -12.058594 -10.089844 -12.058594 -10.375 -12.058594 -10.664062 C -12.097656 -11.074219 -12.140625 -11.523438 -12.261719 -11.933594 C -12.425781 -12.507812 -12.835938 -12.878906 -13.453125 -12.960938 C -13.945312 -13.042969 -14.476562 -13.082031 -14.96875 -13.082031 C -15.871094 -13.042969 -16.730469 -12.917969 -17.632812 -12.878906 C -18.863281 -12.878906 -19.601562 -11.851562 -19.601562 -10.703125 C -19.5625 -9.597656 -19.519531 -8.53125 -19.519531 -7.421875 C -20.628906 -7.464844 -21.695312 -7.464844 -22.761719 -7.503906 C -23.089844 -7.503906 -23.417969 -7.667969 -23.703125 -7.75 C -23.992188 -8.449219 -24.113281 -9.144531 -24.113281 -9.800781 C -24.113281 -10.171875 -24.074219 -10.5 -24.03125 -10.867188 C -23.375 -10.992188 -22.761719 -11.113281 -22.105469 -11.15625 C -21.367188 -11.238281 -20.832031 -11.566406 -20.503906 -12.222656 C -20.546875 -13.164062 -20.546875 -14.066406 -20.585938 -14.96875 C -20.628906 -15.335938 -20.792969 -15.664062 -20.832031 -16.035156 C -20.957031 -16.648438 -21.242188 -17.101562 -21.734375 -17.46875 C -21.859375 -17.511719 -22.023438 -17.511719 -22.144531 -17.511719 C -23.703125 -17.550781 -25.261719 -17.550781 -26.820312 -17.59375 C -27.148438 -17.59375 -27.4375 -17.632812 -27.765625 -17.675781 C -28.296875 -17.796875 -28.828125 -17.839844 -29.320312 -17.675781 C -29.773438 -17.511719 -30.222656 -17.265625 -30.675781 -17.101562 C -31.945312 -16.648438 -32.070312 -14.679688 -32.070312 -13.535156 C -32.070312 -11.566406 -32.027344 -9.554688 -31.988281 -7.546875 C -31.988281 -6.109375 -31.90625 -2.542969 -30.46875 -1.722656 C -29.15625 -0.941406 -26.207031 -0.941406 -24.730469 -0.941406 C -23.582031 -0.902344 -22.390625 -0.902344 -21.242188 -0.820312 C -19.644531 -0.738281 -18.042969 -0.574219 -16.445312 -0.492188 C -14.394531 -0.449219 -12.34375 -0.449219 -10.335938 -0.328125 C -8.160156 -0.246094 -5.988281 -0.121094 -3.855469 -0.0390625 C -2.992188 0 -2.089844 0.0390625 -1.3125 -0.285156 C 1.105469 -1.230469 1.105469 -6.109375 1.105469 -8.285156 C 1.066406 -10.089844 1.023438 -13.78125 0.820312 -15.582031 C 0.574219 -17.757812 0.0390625 -18.78125 -2.050781 -19.273438 C -3.9375 -19.644531 -5.863281 -19.644531 -7.75 -19.480469 C -8.53125 -19.398438 -9.472656 -18.863281 -9.472656 -17.960938 Z M -9.472656 -17.960938 "/></g></g></g></svg>